<svg version="1.1" id="Layer_1" xmlns="http://www.w3.org/2000/svg" xmlns:xlink="http://www.w3.org/1999/xlink" x="0px" y="0px"
	 width="100%" viewBox="0 0 63 63" enable-background="new 0 0 63 63" xml:space="preserve">
<path fill="#FFFFFF" opacity="1.000000" stroke="none" 
	d="
M1.000000,11.000000 
	C1.000000,7.674081 1.000000,4.348161 0.999997,1.016682 
	C21.945873,1.011121 42.891750,1.011121 63.918816,1.011121 
	C63.918816,21.898916 63.918816,42.798206 63.918816,63.848755 
	C43.000862,63.848755 22.000540,63.848755 1.000000,63.848755 
	C1.000000,60.617790 1.000000,57.291851 1.342955,53.573578 
	C3.717681,57.591049 7.189328,59.926163 12.013988,59.973320 
	C18.008041,60.031910 24.004057,59.890045 30.454464,59.911697 
	C34.606079,59.937702 38.302452,59.886772 42.453854,59.912933 
	C57.048618,60.987370 61.597858,57.130447 62.906898,47.178368 
	C62.604019,42.221321 62.220116,37.612202 61.914478,32.554489 
	C61.939842,29.072292 61.886944,26.038694 61.912392,22.553562 
	C61.692169,18.387295 61.393597,14.672565 61.041962,10.590631 
	C58.999626,8.815242 57.105209,6.375393 55.004219,6.182209 
	C47.038002,5.449722 39.004898,5.444752 30.543903,5.093369 
	C26.725979,5.068606 23.360962,5.118169 19.545828,5.093410 
	C16.970984,5.012807 14.777472,4.663964 12.736300,5.073814 
	C8.865444,5.851049 4.311296,5.438483 2.065710,10.269812 
	C1.641890,10.689267 1.320945,10.844634 1.000000,11.000000 
z"/>
<path fill="#060707" opacity="1.000000" stroke="none" 
	d="
M29.999224,59.834759 
	C24.004057,59.890045 18.008041,60.031910 12.013988,59.973320 
	C7.189328,59.926163 3.717681,57.591049 1.342955,53.090622 
	C1.000000,52.555553 1.000000,52.111111 1.348087,51.109123 
	C1.851708,47.703156 2.007243,44.854729 2.577010,42.004128 
	C4.659153,42.001709 6.327062,42.001465 7.996421,42.334343 
	C7.998326,43.111641 7.998782,43.555820 7.749004,44.208492 
	C8.530389,50.480095 12.310962,53.377346 19.573517,55.148743 
	C23.194084,56.031826 27.972624,55.132675 29.999224,59.834759 
z"/>
<path fill="#0D1215" opacity="1.000000" stroke="none" 
	d="
M1.000000,11.333496 
	C1.320945,10.844634 1.641890,10.689267 2.440276,10.268999 
	C4.628436,11.377266 6.339154,12.750436 8.045338,14.331829 
	C8.040804,14.540052 8.125428,14.947913 7.884614,15.060790 
	C7.423692,15.445304 7.203585,15.716941 6.629543,16.027559 
	C4.906423,16.380987 3.537236,16.695433 2.106242,16.640980 
	C1.696290,15.181386 1.348145,14.090693 1.000000,13.000000 
	C1.000000,12.555664 1.000000,12.111328 1.000000,11.333496 
z"/>
<path fill="#6B6D6E" opacity="1.000000" stroke="none" 
	d="
M2.162778,42.006306 
	C2.007243,44.854729 1.851708,47.703156 1.348087,50.775787 
	C1.000000,44.645603 1.000000,38.291203 1.208711,31.466114 
	C1.417423,30.995420 1.834868,30.994074 1.898027,31.392040 
	C2.027862,32.860661 2.094538,33.931313 2.101424,35.436409 
	C2.082015,37.916000 2.122397,39.961155 2.162778,42.006306 
z"/>
<path fill="#6D7072" opacity="1.000000" stroke="none" 
	d="
M1.834868,30.994074 
	C1.834868,30.994074 1.417423,30.995420 1.208711,30.997711 
	C1.000000,25.311958 1.000000,19.623919 1.000000,13.467938 
	C1.348145,14.090693 1.696290,15.181386 2.046533,17.101686 
	C1.977376,22.285553 1.906122,26.639814 1.834868,30.994074 
z"/>
<path fill="#11181B" opacity="1.000000" stroke="none" 
	d="
M8.049872,14.123605 
	C6.339154,12.750436 4.628436,11.377266 2.543151,10.004910 
	C4.311296,5.438483 8.865444,5.851049 12.736300,5.073814 
	C14.777472,4.663964 16.970984,5.012807 19.617786,5.438375 
	C24.691933,7.897388 29.121708,10.312256 33.837543,11.849661 
	C37.179977,12.939324 39.491455,14.315117 39.736626,18.103537 
	C38.705811,18.845503 37.919117,19.417025 36.821697,20.000742 
	C36.303825,20.021269 36.096684,20.029600 35.541977,20.023819 
	C34.128643,20.282806 33.062878,20.555904 31.997292,20.450008 
	C30.881252,14.460875 24.517038,11.660922 18.175680,14.100571 
	C18.448277,15.659143 18.725870,17.246290 18.654034,18.819330 
	C14.886361,17.244684 11.468117,15.684144 8.049872,14.123605 
z"/>
<path fill="#090606" opacity="1.000000" stroke="none" 
	d="
M30.454464,59.911697 
	C27.972624,55.132675 23.194084,56.031826 19.573517,55.148743 
	C12.310962,53.377346 8.530389,50.480095 8.082647,44.208549 
	C9.111361,43.999973 9.556198,43.999832 10.001273,44.248238 
	C10.001512,44.496788 10.004403,44.993866 10.041214,45.346748 
	C15.095712,53.016384 24.190334,51.091824 30.851843,54.720146 
	C31.077215,54.842896 32.279026,53.172935 33.312424,52.274902 
	C33.985714,52.165390 34.372280,52.119560 34.994411,52.046127 
	C35.229977,52.018532 35.703823,52.040382 36.028046,52.050560 
	C36.567059,52.035641 36.781853,52.010540 37.041519,52.317589 
	C41.623882,54.102463 44.002537,51.417068 46.258644,48.106674 
	C47.012135,48.475773 47.506374,48.738041 47.964844,49.356110 
	C45.952324,53.086552 43.975574,56.461193 41.998825,59.835838 
	C38.302452,59.886772 34.606079,59.937702 30.454464,59.911697 
z"/>
<path fill="#070809" opacity="1.000000" stroke="none" 
	d="
M42.453854,59.912930 
	C43.975574,56.461193 45.952324,53.086552 48.333458,49.317188 
	C52.491695,47.948158 56.245541,46.973850 60.085873,46.382702 
	C61.056862,47.019341 61.941364,47.272820 62.825871,47.526302 
	C61.597858,57.130447 57.048618,60.987370 42.453854,59.912930 
z"/>
<path fill="#161D20" opacity="1.000000" stroke="none" 
	d="
M39.980747,17.933094 
	C39.491455,14.315117 37.179977,12.939324 33.837543,11.849661 
	C29.121708,10.312256 24.691933,7.897388 20.067902,5.512695 
	C23.360962,5.118169 26.725979,5.068606 30.627769,5.445812 
	C34.872959,6.916833 38.568211,8.011165 42.293671,8.990576 
	C45.691910,9.883960 49.877388,9.655727 49.634850,14.916222 
	C47.516567,15.717544 45.759823,16.439754 43.657040,17.107735 
	C42.200916,17.346699 41.090832,17.639896 39.980747,17.933094 
z"/>
<path fill="#192025" opacity="1.000000" stroke="none" 
	d="
M49.996391,14.837112 
	C49.877388,9.655727 45.691910,9.883960 42.293671,8.990576 
	C38.568211,8.011165 34.872959,6.916833 31.080675,5.520137 
	C39.004898,5.444752 47.038002,5.449722 55.004219,6.182209 
	C57.105209,6.375393 58.999626,8.815242 60.749134,10.714304 
	C59.671677,11.811196 58.833984,12.417213 57.685722,13.048182 
	C56.897377,13.421854 56.419609,13.770576 55.632988,13.997863 
	C53.548225,14.196657 51.772308,14.516885 49.996391,14.837112 
z"/>
<path fill="#0D1113" opacity="1.000000" stroke="none" 
	d="
M55.941833,14.119297 
	C56.419609,13.770576 56.897377,13.421854 57.686813,13.491017 
	C58.000813,15.689567 57.506046,17.680332 58.144936,19.191954 
	C58.787102,20.711325 60.557858,21.753698 61.834045,23.005098 
	C61.886944,26.038694 61.939842,29.072292 61.509003,32.553585 
	C58.684044,32.667362 56.342827,32.333443 54.041950,31.629326 
	C54.010937,29.487770 53.939583,27.716412 53.804535,25.617790 
	C53.313633,25.178139 52.886421,25.065750 52.322803,24.939100 
	C52.186394,24.924839 51.937820,24.808840 52.009216,24.455235 
	C52.917576,21.792500 53.754543,19.483370 54.732628,16.921597 
	C55.229778,15.819069 55.585808,14.969183 55.941833,14.119297 
z"/>
<path fill="#0A0C0E" opacity="1.000000" stroke="none" 
	d="
M54.001610,31.999523 
	C56.342827,32.333443 58.684044,32.667362 61.430737,33.002182 
	C62.220116,37.612202 62.604019,42.221321 62.906898,47.178368 
	C61.941364,47.272820 61.056862,47.019341 60.037476,46.045074 
	C58.516239,43.962078 57.065845,42.658337 55.757332,41.225063 
	C53.300636,38.534134 51.757782,35.611477 54.001610,31.999523 
z"/>
<path fill="#121719" opacity="1.000000" stroke="none" 
	d="
M61.912392,22.553562 
	C60.557858,21.753698 58.787102,20.711325 58.144936,19.191954 
	C57.506046,17.680332 58.000813,15.689567 57.997391,13.466066 
	C58.833984,12.417213 59.671677,11.811196 60.802193,11.081507 
	C61.393597,14.672565 61.692169,18.387295 61.912392,22.553562 
z"/>
<path fill="#0A090A" opacity="1.000000" stroke="none" 
	d="
M2.577011,42.004128 
	C2.122397,39.961155 2.082015,37.916000 2.430210,35.394119 
	C4.545542,33.278263 6.272297,31.639132 8.308838,29.999676 
	C9.238116,29.998339 9.857611,29.997326 10.571482,30.414921 
	C10.646378,32.825417 10.626899,34.817303 10.356527,36.820404 
	C9.951072,36.895981 9.796508,36.960342 9.447435,37.288666 
	C8.833607,39.035488 8.414289,40.518353 7.994971,42.001221 
	C6.327062,42.001465 4.659153,42.001709 2.577011,42.004128 
z"/>
<path fill="#0F0705" opacity="1.000000" stroke="none" 
	d="
M7.996420,42.334343 
	C8.414289,40.518353 8.833607,39.035488 9.508453,37.577866 
	C10.029266,38.077362 10.294552,38.551613 10.763258,39.227962 
	C11.026511,39.611629 11.086345,39.793194 11.080939,40.321869 
	C10.677479,41.779224 10.339257,42.889458 10.001035,43.999695 
	C9.556198,43.999832 9.111361,43.999973 8.332880,44.000053 
	C7.998782,43.555820 7.998326,43.111641 7.996420,42.334343 
z"/>
<path fill="#080C0F" opacity="1.000000" stroke="none" 
	d="
M7.999053,30.000000 
	C6.272297,31.639132 4.545542,33.278263 2.490000,34.959679 
	C2.094538,33.931313 2.027862,32.860661 1.898027,31.392040 
	C1.906122,26.639814 1.977376,22.285553 2.108340,17.470587 
	C3.537236,16.695433 4.906423,16.380987 6.636381,16.455288 
	C7.331119,21.229355 7.665086,25.614677 7.999053,30.000000 
z"/>
<path fill="#F4F4F5" opacity="1.000000" stroke="none" 
	d="
M8.045338,14.331829 
	C11.468117,15.684144 14.886361,17.244684 18.958174,18.956921 
	C20.423393,20.371254 21.235044,21.633892 21.812378,23.187943 
	C18.108938,22.650854 14.639814,21.822355 11.025259,20.663883 
	C9.961695,18.538578 9.043562,16.743246 8.125428,14.947913 
	C8.125428,14.947913 8.040804,14.540052 8.045338,14.331829 
z"/>
<path fill="#040607" opacity="1.000000" stroke="none" 
	d="
M7.884614,15.060790 
	C9.043562,16.743246 9.961695,18.538578 10.948076,21.061867 
	C11.021121,22.858362 11.025919,23.926901 10.899989,25.318922 
	C10.842029,26.095348 10.914795,26.548290 10.888357,27.369942 
	C10.685137,28.491203 10.581121,29.243759 10.477106,29.996315 
	C9.857611,29.997326 9.238116,29.998339 8.308837,29.999676 
	C7.665086,25.614677 7.331119,21.229355 6.990315,16.416306 
	C7.203585,15.716941 7.423692,15.445304 7.884614,15.060790 
z"/>
<path fill="#0F1518" opacity="1.000000" stroke="none" 
	d="
M22.046694,22.896532 
	C21.235044,21.633892 20.423393,20.371254 19.307602,18.971027 
	C18.725870,17.246290 18.448277,15.659143 18.175680,14.100571 
	C24.517038,11.660922 30.881252,14.460875 31.632879,20.526720 
	C29.826900,22.618616 28.385506,24.254805 26.663410,25.995953 
	C25.606705,26.032240 24.830704,25.963570 23.938549,25.596874 
	C23.230494,24.498075 22.638594,23.697304 22.046694,22.896532 
z"/>
<path fill="#F8F8F8" opacity="1.000000" stroke="none" 
	d="
M39.736626,18.103539 
	C41.090832,17.639896 42.200916,17.346699 43.668995,17.481274 
	C45.697254,18.977709 47.367519,20.046371 48.886902,21.444359 
	C46.435234,22.847248 44.134453,23.920809 41.489391,24.996439 
	C40.009083,24.985657 38.873058,24.972805 37.589478,24.565327 
	C37.338757,22.776649 37.235592,21.382597 37.132423,19.988544 
	C37.919117,19.417025 38.705811,18.845503 39.736626,18.103539 
z"/>
<path fill="#F5F6F6" opacity="1.000000" stroke="none" 
	d="
M26.944113,25.890995 
	C28.385506,24.254805 29.826900,22.618616 31.632706,20.905714 
	C33.062878,20.555904 34.128643,20.282806 35.595703,20.438900 
	C35.854233,23.302004 35.711468,25.735918 35.123276,28.117527 
	C32.099937,27.340479 29.522024,26.615738 26.944113,25.890995 
z"/>
<path fill="#0D0C0D" opacity="1.000000" stroke="none" 
	d="
M35.568703,28.169830 
	C35.711468,25.735918 35.854233,23.302004 35.943275,20.453011 
	C36.096684,20.029600 36.303825,20.021269 36.821697,20.000740 
	C37.235592,21.382597 37.338757,22.776649 37.456238,24.877888 
	C37.562778,25.791962 37.655010,25.998848 37.620766,26.355618 
	C37.494289,26.505497 37.753494,26.799862 37.594856,27.147953 
	C37.534809,27.985895 37.633408,28.475746 37.584976,29.314240 
	C37.641830,30.086946 37.845718,30.511009 37.900608,31.282940 
	C37.755039,32.135807 37.758469,32.640812 37.557796,33.399727 
	C37.431976,34.069664 37.510254,34.485699 37.499283,35.179173 
	C37.482624,35.636845 37.555210,35.817074 37.481544,36.313511 
	C37.236423,37.081688 37.137554,37.533657 36.788742,37.992027 
	C36.372185,38.002811 36.205559,38.007195 35.969101,37.642662 
	C35.807468,35.572666 35.715672,33.871590 35.707390,31.890877 
	C35.716839,30.464106 35.642773,29.316967 35.568703,28.169830 
z"/>
<path fill="#0A090A" opacity="1.000000" stroke="none" 
	d="
M54.041950,31.629326 
	C51.757782,35.611477 53.300636,38.534134 55.757332,41.225063 
	C57.065845,42.658337 58.516239,43.962078 59.950993,45.661915 
	C56.245541,46.973850 52.491695,47.948158 48.369228,48.961388 
	C47.506374,48.738041 47.012135,48.475773 46.265808,47.711582 
	C46.342476,45.139362 46.671227,43.069073 47.140877,40.678429 
	C48.507328,37.200382 49.732876,34.042683 50.981564,30.679142 
	C51.004704,30.473303 51.023533,30.059456 51.406994,29.810299 
	C51.624119,28.197048 54.982479,26.142336 51.143913,25.391262 
	C51.491779,25.088665 51.708385,24.939440 51.937820,24.808840 
	C51.937820,24.808840 52.186394,24.924839 52.280563,25.347988 
	C52.872562,25.829109 53.370399,25.887081 53.868233,25.945053 
	C53.939583,27.716412 54.010937,29.487770 54.041950,31.629326 
z"/>
<path fill="#100604" opacity="1.000000" stroke="none" 
	d="
M33.025703,52.338589 
	C32.279026,53.172935 31.077215,54.842896 30.851843,54.720146 
	C24.190334,51.091824 15.095712,53.016384 10.462179,45.348267 
	C13.069426,45.004055 15.292519,45.011200 17.851341,45.159264 
	C18.787184,45.712326 19.387300,46.124474 20.269943,46.697258 
	C23.937302,47.950638 27.322132,49.043377 30.827274,50.450188 
	C31.640291,51.289032 32.332996,51.813812 33.025703,52.338589 
z"/>
<path fill="#150805" opacity="1.000000" stroke="none" 
	d="
M46.999977,40.998779 
	C46.671227,43.069073 46.342476,45.139362 46.006554,47.604748 
	C44.002537,51.417068 41.623882,54.102463 37.142433,51.995712 
	C37.526134,50.289268 37.853786,49.236839 38.349297,47.788990 
	C38.046875,47.240257 37.576599,47.086945 37.142319,46.825165 
	C37.178322,46.716694 36.999043,46.574902 37.013092,46.552437 
	C37.027142,46.529972 37.022774,46.476940 37.375954,46.540993 
	C39.584843,45.345856 41.440548,44.086666 43.531898,42.693939 
	C43.910603,42.031658 44.053661,41.502914 44.547058,40.982262 
	C45.598259,40.993160 46.299118,40.995972 46.999977,40.998779 
z"/>
<path fill="#200802" opacity="1.000000" stroke="none" 
	d="
M17.515612,45.018349 
	C15.292519,45.011200 13.069426,45.004055 10.425367,44.995384 
	C10.004403,44.993866 10.001512,44.496788 10.001273,44.248241 
	C10.339257,42.889458 10.677479,41.779224 11.395552,40.348808 
	C13.344414,41.047691 14.913427,42.066757 16.512592,43.375786 
	C16.867033,44.116615 17.191322,44.567478 17.515612,45.018349 
z"/>
<path fill="#D9A686" opacity="1.000000" stroke="none" 
	d="
M35.703827,52.040382 
	C35.703823,52.040382 35.229977,52.018532 34.775471,51.716759 
	C33.855820,51.177883 33.390675,50.940781 33.005356,50.620766 
	C32.907356,50.327099 32.706181,50.273556 32.315514,50.145317 
	C31.967932,49.856396 31.786489,49.799389 31.457771,49.365852 
	C31.014910,48.262371 30.719326,47.535416 31.054134,46.844234 
	C32.105122,46.862869 32.525711,46.845734 33.102688,47.082031 
	C34.150936,47.190536 35.042797,47.045620 35.994247,46.851830 
	C36.053833,46.802959 36.207516,46.814697 36.125130,47.242565 
	C35.929771,49.127083 35.816799,50.583733 35.703827,52.040382 
z"/>
<path fill="#7D1603" opacity="1.000000" stroke="none" 
	d="
M36.028046,52.050560 
	C35.816799,50.583733 35.929771,49.127083 36.320930,47.176376 
	C36.599117,46.682320 36.999043,46.574902 36.999043,46.574902 
	C36.999043,46.574902 37.178322,46.716694 37.319374,47.035282 
	C37.700760,47.630718 37.941097,47.907562 38.181435,48.184410 
	C37.853786,49.236839 37.526134,50.289268 37.097569,51.663570 
	C36.781853,52.010540 36.567059,52.035641 36.028046,52.050560 
z"/>
<path fill="#360902" opacity="1.000000" stroke="none" 
	d="
M32.925529,50.703678 
	C33.390675,50.940781 33.855820,51.177883 34.539906,51.744354 
	C34.372280,52.119560 33.985714,52.165390 33.312424,52.274902 
	C32.332996,51.813812 31.640291,51.289032 31.053875,50.352859 
	C31.160162,49.941467 31.605045,49.742386 31.605045,49.742386 
	C31.786489,49.799389 31.967932,49.856396 32.318562,50.225441 
	C32.487747,50.537483 32.925529,50.703678 32.925529,50.703678 
z"/>
<path fill="#FBFCFC" opacity="1.000000" stroke="none" 
	d="
M49.037785,21.115036 
	C47.367519,20.046371 45.697254,18.977709 44.015034,17.535507 
	C45.759823,16.439754 47.516567,15.717544 49.634850,14.916222 
	C51.772308,14.516885 53.548225,14.196657 55.632988,13.997862 
	C55.585808,14.969183 55.229778,15.819069 54.467094,17.185806 
	C52.386227,18.840118 50.712006,19.977577 49.037785,21.115036 
z"/>
<path fill="#080809" opacity="1.000000" stroke="none" 
	d="
M48.886902,21.444361 
	C50.712006,19.977577 52.386227,18.840118 54.325977,17.438450 
	C53.754543,19.483370 52.917576,21.792500 52.009216,24.455235 
	C51.708385,24.939440 51.491779,25.088665 50.871361,25.603891 
	C49.641354,26.316708 48.827999,26.682150 47.599876,27.045303 
	C45.316612,27.637030 43.448112,28.231045 41.781311,28.376991 
	C41.933231,26.950739 41.883450,25.972553 41.833672,24.994370 
	C44.134453,23.920809 46.435234,22.847248 48.886902,21.444361 
z"/>
<path fill="#F0F1F2" opacity="1.000000" stroke="none" 
	d="
M53.804535,25.617790 
	C53.370399,25.887081 52.872562,25.829109 52.416969,25.362249 
	C52.886421,25.065750 53.313633,25.178139 53.804535,25.617790 
z"/>
<path fill="#C8C8C8" opacity="1.000000" stroke="none" 
	d="
M10.571482,30.414921 
	C10.581121,29.243759 10.685137,28.491203 11.224611,27.368252 
	C12.108388,26.995773 12.556706,26.993689 12.907833,27.257938 
	C13.210201,28.679737 13.609761,29.835203 14.005428,31.365112 
	C14.003205,32.487663 14.004875,33.235771 14.002186,34.228966 
	C13.997827,34.474049 13.987774,34.964195 13.720724,35.148209 
	C12.874995,35.962822 12.296315,36.593418 11.437136,37.128193 
	C10.973565,36.957977 10.790492,36.883583 10.607420,36.809193 
	C10.626899,34.817303 10.646378,32.825417 10.571482,30.414921 
z"/>
<path fill="#525050" opacity="1.000000" stroke="none" 
	d="
M10.356527,36.820404 
	C10.790492,36.883583 10.973565,36.957977 11.490627,37.354473 
	C12.133914,38.009342 12.443211,38.342106 12.380724,38.684750 
	C11.525906,38.805038 11.042871,38.915447 10.559837,39.025860 
	C10.294552,38.551613 10.029266,38.077362 9.702963,37.313911 
	C9.796508,36.960342 9.951072,36.895981 10.356527,36.820404 
z"/>
<path fill="#C9B9B4" opacity="1.000000" stroke="none" 
	d="
M10.763258,39.227962 
	C11.042871,38.915447 11.525906,38.805038 12.752781,38.737282 
	C14.940899,38.501385 16.385178,38.222836 17.906223,38.352158 
	C18.136953,39.557755 18.290913,40.355480 18.091629,41.262932 
	C17.319738,41.943710 16.901089,42.514767 16.482439,43.085823 
	C14.913427,42.066757 13.344414,41.047691 11.460789,40.001694 
	C11.086345,39.793194 11.026511,39.611629 10.763258,39.227962 
z"/>
<path fill="#EEEEEE" opacity="1.000000" stroke="none" 
	d="
M21.812378,23.187943 
	C22.638594,23.697304 23.230494,24.498075 23.680046,25.900066 
	C21.373249,26.657522 19.208801,26.813759 16.752737,26.833294 
	C15.316631,26.124773 14.172142,25.552954 12.694832,24.971256 
	C11.918246,24.972734 11.474482,24.984087 11.030716,24.995441 
	C11.025919,23.926901 11.021121,22.858362 11.093506,21.391838 
	C14.639814,21.822355 18.108938,22.650854 21.812378,23.187943 
z"/>
<path fill="#D5D5D6" opacity="1.000000" stroke="none" 
	d="
M10.899989,25.318924 
	C11.474482,24.984087 11.918246,24.972734 12.687628,25.306501 
	C13.010503,26.098284 13.007764,26.544943 13.005025,26.991604 
	C12.556706,26.993689 12.108388,26.995773 11.323816,26.999546 
	C10.914795,26.548290 10.842029,26.095348 10.899989,25.318924 
z"/>
<path fill="#E2E3E4" opacity="1.000000" stroke="none" 
	d="
M17.044353,26.969995 
	C19.208801,26.813759 21.373249,26.657522 23.796200,26.198093 
	C24.830704,25.963570 25.606705,26.032240 26.663410,25.995953 
	C29.522024,26.615738 32.099937,27.340479 35.123276,28.117527 
	C35.642773,29.316967 35.716839,30.464106 35.357838,31.893921 
	C34.283340,32.454845 33.641907,32.733093 32.857716,32.773598 
	C31.809563,32.358223 30.904171,32.180588 29.712061,32.029236 
	C28.947105,32.363693 28.468870,32.671871 27.930561,32.621162 
	C25.259708,31.836199 22.648928,31.410122 19.792154,30.825148 
	C19.030729,30.120512 18.515297,29.574774 17.911133,28.758213 
	C17.563049,27.981592 17.303701,27.475794 17.044353,26.969995 
z"/>
<path fill="#F1F1F1" opacity="1.000000" stroke="none" 
	d="
M41.489391,24.996437 
	C41.883450,25.972553 41.933231,26.950739 41.718391,28.399956 
	C41.453777,28.870987 41.223053,28.993874 40.885330,28.966499 
	C40.322437,28.957083 40.097267,28.975042 39.605949,28.992599 
	C38.803864,28.983332 38.267933,28.974464 37.732002,28.965599 
	C37.633408,28.475746 37.534809,27.985895 37.607731,27.073689 
	C37.779247,26.651331 37.747238,26.205736 37.747238,26.205736 
	C37.655010,25.998848 37.562778,25.791962 37.603790,25.272514 
	C38.873058,24.972805 40.009083,24.985657 41.489391,24.996437 
z"/>
<path fill="#CFD0D2" opacity="1.000000" stroke="none" 
	d="
M33.000477,33.011341 
	C33.641907,32.733093 34.283340,32.454845 35.274323,32.173553 
	C35.715672,33.871590 35.807468,35.572666 35.846046,37.693260 
	C35.792831,38.112770 35.559872,38.241306 35.191292,38.087646 
	C33.293945,37.617210 31.765181,37.300434 30.161121,36.612061 
	C30.147211,35.489578 30.208591,34.738693 30.582014,33.982361 
	C31.596197,33.655052 32.298336,33.333195 33.000477,33.011341 
z"/>
<path fill="#DADBDB" opacity="1.000000" stroke="none" 
	d="
M39.872101,28.993000 
	C40.097267,28.975042 40.322437,28.957083 40.829929,29.297344 
	C41.082073,30.097809 41.051899,30.540052 41.148170,31.301079 
	C41.530369,32.705456 41.786133,33.791050 41.702877,34.913689 
	C40.909401,34.964417 40.454937,34.978111 39.854042,34.756084 
	C39.199528,34.324093 38.691448,34.127819 38.123611,33.794312 
	C38.007549,33.460457 37.906898,33.290039 37.761894,33.145817 
	C37.758469,32.640812 37.755039,32.135807 38.103294,31.176212 
	C38.927353,30.145414 39.399727,29.569206 39.872101,28.993000 
z"/>
<path fill="#CBCBCB" opacity="1.000000" stroke="none" 
	d="
M40.000477,34.991806 
	C40.454937,34.978111 40.909401,34.964417 41.907944,34.936272 
	C42.452023,34.921814 42.863777,34.956718 42.949337,35.236324 
	C43.122520,35.690063 43.210140,35.864197 43.222061,36.363754 
	C43.063438,37.124153 42.980515,37.559135 42.571594,37.992493 
	C40.693829,37.991234 39.142059,37.991589 37.452385,37.990849 
	C37.314476,37.989750 37.038681,37.985626 37.038681,37.985626 
	C37.137554,37.533657 37.236423,37.081688 37.760254,36.302471 
	C38.790302,35.647419 39.395390,35.319614 40.000477,34.991806 
z"/>
<path fill="#160D0B" opacity="1.000000" stroke="none" 
	d="
M35.559872,38.241306 
	C35.559872,38.241306 35.792831,38.112770 35.915886,38.062172 
	C36.205559,38.007195 36.372185,38.002811 36.788742,37.992027 
	C37.038681,37.985626 37.314476,37.989750 37.325676,38.335411 
	C37.403515,39.161003 37.470158,39.640934 37.414925,40.553947 
	C37.202961,42.817005 37.112865,44.646973 37.022774,46.476940 
	C37.022774,46.476940 37.027142,46.529972 37.013092,46.552437 
	C36.999043,46.574902 36.599117,46.682320 36.403316,46.748508 
	C36.207516,46.814697 36.053833,46.802959 36.060089,46.468666 
	C35.987572,45.092812 35.908802,44.051243 35.898148,42.673378 
	C35.812531,41.698418 35.658798,41.059757 35.611664,40.246593 
	C35.795757,39.799026 35.778057,39.532341 35.701454,39.007950 
	C35.678463,38.576355 35.619167,38.408833 35.559872,38.241306 
z"/>
<path fill="#D2D2D2" opacity="1.000000" stroke="none" 
	d="
M39.854042,34.756084 
	C39.395390,35.319614 38.790302,35.647419 37.906506,35.986263 
	C37.555210,35.817074 37.482624,35.636845 37.629448,35.039539 
	C37.976349,34.399895 38.087849,34.169586 38.183369,33.931545 
	C38.691448,34.127819 39.199528,34.324093 39.854042,34.756084 
z"/>
<path fill="#EBEBEB" opacity="1.000000" stroke="none" 
	d="
M39.605949,28.992599 
	C39.399727,29.569206 38.927353,30.145414 38.252296,30.828348 
	C37.845718,30.511009 37.641830,30.086946 37.584972,29.314240 
	C38.267933,28.974464 38.803864,28.983332 39.605949,28.992599 
z"/>
<path fill="#CBCBCB" opacity="1.000000" stroke="none" 
	d="
M38.123611,33.794312 
	C38.087849,34.169586 37.976349,34.399895 37.718697,34.762096 
	C37.510254,34.485699 37.431976,34.069664 37.557793,33.399727 
	C37.906898,33.290039 38.007549,33.460457 38.123611,33.794312 
z"/>
<path fill="#F8F8F8" opacity="1.000000" stroke="none" 
	d="
M37.620766,26.355618 
	C37.747238,26.205736 37.779247,26.651331 37.766373,26.725597 
	C37.753494,26.799862 37.494289,26.505497 37.620766,26.355618 
z"/>
<path fill="#0C0503" opacity="1.000000" stroke="none" 
	d="
M42.897594,37.994114 
	C42.980515,37.559135 43.063438,37.124153 43.437607,36.191364 
	C43.741009,35.342155 43.753166,34.990757 43.955299,34.432304 
	C44.782028,33.870663 45.418781,33.516071 46.406891,33.204372 
	C48.158302,32.459835 49.558361,31.672409 50.958424,30.884983 
	C49.732876,34.042683 48.507328,37.200382 47.140877,40.678432 
	C46.299118,40.995972 45.598259,40.993160 44.442261,40.773666 
	C43.865238,40.247894 43.647968,40.037197 43.265392,39.600697 
	C43.096180,38.849037 42.996887,38.421577 42.897594,37.994114 
z"/>
<path fill="#E9E9EA" opacity="1.000000" stroke="none" 
	d="
M50.981564,30.679142 
	C49.558361,31.672409 48.158302,32.459835 46.334587,32.824005 
	C44.281197,31.927931 42.651463,31.455114 41.021729,30.982296 
	C41.051899,30.540052 41.082073,30.097809 41.167648,29.324718 
	C41.223053,28.993874 41.453777,28.870987 41.516693,28.848022 
	C43.448112,28.231045 45.316612,27.637030 47.645638,27.372814 
	C49.078617,28.488226 50.051075,29.273842 51.023533,30.059456 
	C51.023533,30.059456 51.004704,30.473303 50.981564,30.679142 
z"/>
<path fill="#F0F1F2" opacity="1.000000" stroke="none" 
	d="
M51.406994,29.810299 
	C50.051075,29.273842 49.078617,28.488226 48.060402,27.375103 
	C48.827999,26.682150 49.641354,26.316708 50.727264,25.738636 
	C54.982479,26.142336 51.624119,28.197048 51.406994,29.810299 
z"/>
<path fill="#170603" opacity="1.000000" stroke="none" 
	d="
M18.444872,41.153206 
	C18.290913,40.355480 18.136953,39.557755 18.000103,38.352570 
	C18.017214,37.945114 18.169607,38.054802 18.527145,38.086170 
	C20.235506,38.877850 22.350685,39.333233 22.797821,40.454056 
	C24.307308,44.237843 26.736906,44.242195 29.901489,43.301842 
	C30.122938,44.675648 30.273338,45.742058 30.423740,46.808464 
	C30.719326,47.535416 31.014910,48.262371 31.457771,49.365852 
	C31.605045,49.742386 31.160162,49.941467 30.933563,50.038792 
	C27.322132,49.043377 23.937302,47.950638 20.633736,46.582344 
	C19.958288,44.588932 19.201580,42.871071 18.444872,41.153206 
z"/>
<path fill="#FDAE50" opacity="1.000000" stroke="none" 
	d="
M18.091629,41.262932 
	C19.201580,42.871071 19.958288,44.588932 20.351208,46.421707 
	C19.387300,46.124474 18.787184,45.712326 17.851341,45.159264 
	C17.191322,44.567478 16.867033,44.116615 16.512592,43.375786 
	C16.901089,42.514767 17.319738,41.943710 18.091629,41.262932 
z"/>
<path fill="#C5B6B3" opacity="1.000000" stroke="none" 
	d="
M37.375954,46.540993 
	C37.112865,44.646973 37.202961,42.817005 37.704071,40.724998 
	C39.688232,40.627274 41.261375,40.791584 42.920021,41.269646 
	C43.102440,41.998089 43.199348,42.412785 43.296257,42.827480 
	C41.440548,44.086666 39.584843,45.345856 37.375954,46.540993 
z"/>
<path fill="#403534" opacity="1.000000" stroke="none" 
	d="
M43.531898,42.693939 
	C43.199348,42.412785 43.102440,41.998089 43.026295,41.002888 
	C43.143147,40.256554 43.239231,40.090721 43.335312,39.924892 
	C43.647968,40.037197 43.865238,40.247894 44.091919,40.765579 
	C44.053661,41.502914 43.910603,42.031658 43.531898,42.693939 
z"/>
<path fill="#C5B6B3" opacity="1.000000" stroke="none" 
	d="
M38.349297,47.788990 
	C37.941097,47.907562 37.700760,47.630718 37.283371,47.143753 
	C37.576599,47.086945 38.046875,47.240257 38.349297,47.788990 
z"/>
<path fill="#B8B1B1" opacity="1.000000" stroke="none" 
	d="
M31.054134,46.844234 
	C30.273338,45.742058 30.122938,44.675648 29.964924,43.047981 
	C29.916775,42.317028 29.876238,42.147343 29.911430,41.645817 
	C30.062176,40.868694 30.137190,40.423412 30.560455,39.979042 
	C31.605150,39.983807 32.301598,39.987663 32.998230,40.326256 
	C33.002792,41.107193 33.007172,41.553398 33.004673,42.405327 
	C32.980629,44.150234 32.963467,45.489418 32.946301,46.828602 
	C32.525711,46.845734 32.105122,46.862869 31.054134,46.844234 
z"/>
<path fill="#BEA394" opacity="1.000000" stroke="none" 
	d="
M33.102688,47.082031 
	C32.963467,45.489418 32.980629,44.150234 33.216766,42.518425 
	C33.959820,42.485439 34.483906,42.745087 35.213505,43.005569 
	C35.419018,43.006413 35.830032,43.009678 35.830032,43.009678 
	C35.908802,44.051243 35.987572,45.092812 36.000500,46.517540 
	C35.042797,47.045620 34.150936,47.190536 33.102688,47.082031 
z"/>
<path fill="#100604" opacity="1.000000" stroke="none" 
	d="
M33.005356,50.620766 
	C32.925529,50.703678 32.487747,50.537483 32.484703,50.457355 
	C32.706181,50.273556 32.907356,50.327099 33.005356,50.620766 
z"/>
<path fill="#DBDBDC" opacity="1.000000" stroke="none" 
	d="
M16.752737,26.833294 
	C17.303701,27.475794 17.563049,27.981592 17.901329,29.031866 
	C17.913570,30.118320 17.846884,30.660301 17.311226,31.135269 
	C15.897942,31.042395 14.953631,31.016531 14.009320,30.990667 
	C13.609761,29.835203 13.210201,28.679737 12.907833,27.257938 
	C13.007764,26.544943 13.010503,26.098284 13.020448,25.316378 
	C14.172142,25.552954 15.316631,26.124773 16.752737,26.833294 
z"/>
<path fill="#C3C1C0" opacity="1.000000" stroke="none" 
	d="
M17.923334,37.944702 
	C16.385178,38.222836 14.940899,38.501385 13.124565,38.727402 
	C12.443211,38.342106 12.133914,38.009342 11.771126,37.450298 
	C12.296315,36.593418 12.874995,35.962822 14.084367,35.430931 
	C15.724314,34.618263 16.733568,33.706894 17.845572,33.336544 
	C18.022083,35.269978 18.095846,36.662392 18.169609,38.054802 
	C18.169607,38.054802 18.017214,37.945114 17.923334,37.944702 
z"/>
<path fill="#D0D0D0" opacity="1.000000" stroke="none" 
	d="
M14.005428,31.365112 
	C14.953631,31.016531 15.897942,31.042395 17.386009,31.326038 
	C17.882830,31.958994 17.835892,32.334167 17.376705,33.010178 
	C15.978488,33.535301 14.992517,33.759590 14.006544,33.983879 
	C14.004875,33.235771 14.003205,32.487663 14.005428,31.365112 
z"/>
<path fill="#C7C7C7" opacity="1.000000" stroke="none" 
	d="
M14.002186,34.228966 
	C14.992517,33.759590 15.978488,33.535301 17.351004,33.030396 
	C17.737549,32.749779 17.742823,32.795521 17.742823,32.795521 
	C16.733568,33.706894 15.724314,34.618263 14.351416,35.246918 
	C13.987774,34.964195 13.997827,34.474049 14.002186,34.228966 
z"/>
<path fill="#0F0402" opacity="1.000000" stroke="none" 
	d="
M17.845572,33.336544 
	C17.742823,32.795521 17.737549,32.749779 17.763252,32.729561 
	C17.835892,32.334167 17.882830,31.958994 17.854980,31.393049 
	C17.846884,30.660301 17.913570,30.118320 17.990063,29.302689 
	C18.515297,29.574774 19.030729,30.120512 19.785780,31.073166 
	C20.133232,31.832541 20.367575,32.046337 20.816175,32.448547 
	C22.937805,33.622517 21.765835,38.495743 25.911625,37.105103 
	C27.243246,38.976246 28.539473,40.476952 29.835699,41.977654 
	C29.876238,42.147343 29.916775,42.317028 29.893875,42.740578 
	C26.736906,44.242195 24.307308,44.237843 22.797821,40.454056 
	C22.350685,39.333233 20.235506,38.877850 18.527147,38.086170 
	C18.095846,36.662392 18.022083,35.269978 17.845572,33.336544 
z"/>
<path fill="#0C0402" opacity="1.000000" stroke="none" 
	d="
M29.911430,41.645817 
	C28.539473,40.476952 27.243246,38.976246 25.996483,36.803429 
	C26.706032,35.092968 27.366114,34.054619 28.021669,33.002930 
	C28.017143,32.989590 27.990633,32.980049 27.990633,32.980049 
	C28.468870,32.671871 28.947105,32.363693 29.754070,32.361595 
	C30.145189,33.107719 30.207581,33.547768 30.269974,33.987812 
	C30.208591,34.738693 30.147211,35.489578 30.075729,36.980728 
	C30.114485,38.473370 30.163343,39.225750 30.212204,39.978127 
	C30.137190,40.423412 30.062176,40.868694 29.911430,41.645817 
z"/>
<path fill="#DADCDD" opacity="1.000000" stroke="none" 
	d="
M20.728422,32.121471 
	C20.367575,32.046337 20.133232,31.832541 20.031773,31.232063 
	C22.648928,31.410122 25.259708,31.836199 27.930561,32.621162 
	C27.990633,32.980049 28.017143,32.989590 27.608995,32.996651 
	C25.043373,32.709629 22.885897,32.415550 20.728422,32.121471 
z"/>
<path fill="#D9DBDC" opacity="1.000000" stroke="none" 
	d="
M30.582016,33.982361 
	C30.207581,33.547768 30.145189,33.107719 30.040789,32.335316 
	C30.904171,32.180588 31.809563,32.358223 32.857716,32.773598 
	C32.298336,33.333195 31.596197,33.655052 30.582016,33.982361 
z"/>
<path fill="#C4C5C6" opacity="1.000000" stroke="none" 
	d="
M30.560453,39.979042 
	C30.163343,39.225750 30.114485,38.473370 30.151020,37.352325 
	C31.765181,37.300434 33.293945,37.617210 35.191292,38.087646 
	C35.619167,38.408833 35.678463,38.576355 35.346649,38.967926 
	C34.303043,39.458492 33.650547,39.725002 32.998047,39.991516 
	C32.301598,39.987663 31.605150,39.983807 30.560453,39.979042 
z"/>
<path fill="#E1E2E3" opacity="1.000000" stroke="none" 
	d="
M41.148170,31.301079 
	C42.651463,31.455114 44.281197,31.927931 45.983234,32.781113 
	C45.418781,33.516071 44.782028,33.870663 43.713158,34.464092 
	C43.281048,34.702930 42.863777,34.956718 42.863777,34.956718 
	C42.863777,34.956718 42.452023,34.921814 42.246956,34.899231 
	C41.786133,33.791050 41.530369,32.705456 41.148170,31.301079 
z"/>
<path fill="#C5C2C2" opacity="1.000000" stroke="none" 
	d="
M43.265392,39.600697 
	C43.239231,40.090721 43.143147,40.256554 42.940788,40.689140 
	C41.261375,40.791584 39.688232,40.627274 37.825943,40.291908 
	C37.470158,39.640934 37.403515,39.161003 37.463585,38.336510 
	C39.142059,37.991589 40.693829,37.991234 42.571594,37.992493 
	C42.996887,38.421577 43.096180,38.849037 43.265392,39.600697 
z"/>
<path fill="#403534" opacity="1.000000" stroke="none" 
	d="
M42.949337,35.236324 
	C42.863777,34.956718 43.281048,34.702930 43.523186,34.671143 
	C43.753166,34.990757 43.741009,35.342155 43.513306,35.865944 
	C43.210140,35.864197 43.122520,35.690063 42.949337,35.236324 
z"/>
<path fill="#B4B0B1" opacity="1.000000" stroke="none" 
	d="
M32.998230,40.326256 
	C33.650547,39.725002 34.303043,39.458492 35.310349,39.232006 
	C35.778057,39.532341 35.795757,39.799026 35.451530,40.660385 
	C35.125862,41.834026 35.066925,42.419380 35.007992,43.004730 
	C34.483906,42.745087 33.959820,42.485439 33.223640,42.112698 
	C33.007172,41.553398 33.002792,41.107193 32.998230,40.326256 
z"/>
<path fill="#A99E97" opacity="1.000000" stroke="none" 
	d="
M35.213505,43.005569 
	C35.066925,42.419380 35.125862,41.834026 35.344933,40.834885 
	C35.658798,41.059757 35.812531,41.698418 35.898148,42.673378 
	C35.830032,43.009678 35.419018,43.006413 35.213505,43.005569 
z"/>
<path fill="#CDCCCC" opacity="1.000000" stroke="none" 
	d="
M20.816175,32.448547 
	C22.885897,32.415550 25.043373,32.709629 27.613522,33.009991 
	C27.366114,34.054619 26.706032,35.092968 25.961088,36.432995 
	C21.765835,38.495743 22.937805,33.622517 20.816175,32.448547 
z"/>
</svg>